<?xml version="1.0" encoding="UTF-8"?>
<svg width="22px" height="27px" viewBox="0 0 22 27" version="1.1" xmlns="http://www.w3.org/2000/svg" xmlns:xlink="http://www.w3.org/1999/xlink">
    <!-- Generator: Sketch 52.6 (67491) - http://www.bohemiancoding.com/sketch -->
    <title>001-copy</title>
    <desc>Created with Sketch.</desc>
    <g id="Page-1" stroke="none" stroke-width="1" fill="none" fill-rule="evenodd">
        <g id="Dashboard" transform="translate(-505.000000, -34.000000)" fill="#8A95FF">
            <g id="Header">
                <g id="nav" transform="translate(456.000000, 0.000000)">
                    <g id="001-copy" transform="translate(49.000000, 34.000000)">
                        <g>
                            <path d="M14.942602,4.71533742 L2.20280612,4.71533742 C1.00739796,4.71533742 0.0364795918,5.67055215 0.0364795918,6.84662577 L0.0364795918,24.8300613 C0.0364795918,26.006135 1.00739796,26.9613497 2.20280612,26.9613497 L14.942602,26.9613497 C16.1380102,26.9613497 17.1089286,26.006135 17.1089286,24.8300613 L17.1089286,6.84662577 C17.1033163,5.67055215 16.132398,4.71533742 14.942602,4.71533742 Z M15.5880102,24.8245399 C15.5880102,25.1779141 15.2961735,25.4650307 14.9369898,25.4650307 L2.19719388,25.4650307 C1.8380102,25.4650307 1.54617347,25.1779141 1.54617347,24.8245399 L1.54617347,6.84662577 C1.54617347,6.49325153 1.8380102,6.20613497 2.19719388,6.20613497 L14.9369898,6.20613497 C15.2961735,6.20613497 15.5880102,6.49325153 15.5880102,6.84662577 L15.5880102,24.8245399 Z" id="Shape" fill-rule="nonzero"></path>
                            <path d="M19.8140306,0 L7.07423469,0 C5.87882653,0 4.90790816,0.955214724 4.90790816,2.13128834 C4.90790816,2.54539877 5.24464286,2.87668712 5.66556122,2.87668712 C6.08647959,2.87668712 6.42321429,2.54539877 6.42321429,2.13128834 C6.42321429,1.77791411 6.71505102,1.49079755 7.07423469,1.49079755 L19.8140306,1.49079755 C20.1732143,1.49079755 20.465051,1.77791411 20.465051,2.13128834 L20.465051,20.1147239 C20.465051,20.4680982 20.1732143,20.7552147 19.8140306,20.7552147 C19.3931122,20.7552147 19.0563776,21.0865031 19.0563776,21.5006135 C19.0563776,21.9147239 19.3931122,22.2460123 19.8140306,22.2460123 C21.0094388,22.2460123 21.9803571,21.2907975 21.9803571,20.1147239 L21.9803571,2.13128834 C21.9803571,0.955214724 21.0094388,0 19.8140306,0 Z" id="Path"></path>
                        </g>
                    </g>
                </g>
            </g>
        </g>
    </g>
</svg>