<?xml version="1.0" encoding="UTF-8"?>
<svg width="23px" height="28px" viewBox="0 0 23 28" version="1.1" xmlns="http://www.w3.org/2000/svg" xmlns:xlink="http://www.w3.org/1999/xlink">
    <!-- Generator: Sketch 52.6 (67491) - http://www.bohemiancoding.com/sketch -->
    <title>001-111</title>
    <desc>Created with Sketch.</desc>
    <g id="Page-1" stroke="none" stroke-width="1" fill="none" fill-rule="evenodd">
        <g id="Dashboard" transform="translate(-181.000000, -3432.000000)" fill="#8A95FF">
            <g id="Company-docs" transform="translate(180.000000, 3432.000000)">
                <g id="Group-17">
                    <g id="001-copy-copy" transform="translate(1.000000, 0.000000)">
                        <g id="001-copy">
                            <path d="M15.6218112,4.88997955 C16.8656888,4.88997955 17.8807398,5.8805726 17.8866071,7.1002045 L17.8866071,25.7496933 C17.8866071,26.9693252 16.8715561,27.9599182 15.6218112,27.9599182 L2.30293367,27.9599182 C1.05318878,27.9599182 0.0381377551,26.9693252 0.0381377551,25.7496933 L0.0381377551,7.1002045 C0.0381377551,5.8805726 1.05318878,4.88997955 2.30293367,4.88997955 L15.6218112,4.88997955 Z" id="Shape" fill-rule="nonzero"></path>
                            <path d="M20.7146684,0 L7.39579082,0 C6.14604592,0 5.1309949,0.990593047 5.1309949,2.21022495 C5.1309949,2.6396728 5.48303571,2.98323108 5.92308673,2.98323108 C6.36313776,2.98323108 6.71517857,2.6396728 6.71517857,2.21022495 C6.71517857,1.84376278 7.02028061,1.54601227 7.39579082,1.54601227 L20.7146684,1.54601227 C21.0901786,1.54601227 21.3952806,1.84376278 21.3952806,2.21022495 L21.3952806,20.8597137 C21.3952806,21.2261759 21.0901786,21.5239264 20.7146684,21.5239264 C20.2746173,21.5239264 19.9225765,21.8674847 19.9225765,22.2969325 C19.9225765,22.7263804 20.2746173,23.0699387 20.7146684,23.0699387 C21.9644133,23.0699387 22.9794643,22.0793456 22.9794643,20.8597137 L22.9794643,2.21022495 C22.9794643,0.990593047 21.9644133,0 20.7146684,0 Z" id="Path"></path>
                        </g>
                    </g>
                </g>
            </g>
        </g>
    </g>
</svg>