<?xml version="1.0" encoding="UTF-8"?>
<svg width="23px" height="20px" viewBox="0 0 23 20" version="1.1" xmlns="http://www.w3.org/2000/svg" xmlns:xlink="http://www.w3.org/1999/xlink">
    <!-- Generator: Sketch 52.6 (67491) - http://www.bohemiancoding.com/sketch -->
    <title>003-star copy 5</title>
    <desc>Created with Sketch.</desc>
    <g id="Page-1" stroke="none" stroke-width="1" fill="none" fill-rule="evenodd">
        <g id="Dashboard" transform="translate(-180.000000, -2211.000000)" fill="#357BD9">
            <g id="Connect-to-more" transform="translate(180.000000, 2211.000000)">
                <g id="003-star">
                    <g id="Path">
                        <path d="M22.4840784,9.05416667 C22.9273922,8.655 23.0838824,8.06916667 22.8926667,7.52458333 C22.701,6.98 22.2017647,6.59125 21.5884314,6.50875 L16.1351765,5.77666667 C15.9029216,5.74541667 15.7022353,5.61083333 15.5985098,5.41625 L13.1605098,0.85125 C12.8867647,0.338333333 12.3311569,0.0195833333 11.7119608,0.0195833333 C11.0932157,0.0195833333 10.5376078,0.338333333 10.2638627,0.85125 L7.82541176,5.41666667 C7.72168627,5.61125 7.52054902,5.74583333 7.28829412,5.77708333 L1.83503922,6.50916667 C1.22215686,6.59125 0.722470588,6.98041667 0.530803922,7.525 C0.339588235,8.06958333 0.496078431,8.65541667 0.939392157,9.05458333 L4.88501961,12.6079167 C5.05323529,12.7595833 5.13035294,12.9779167 5.09066667,13.19125 L4.15984314,18.20875 C4.07731373,18.6504167 4.20268627,19.08 4.51205882,19.41875 C4.99280392,19.9466667 5.83207843,20.1075 6.50313725,19.7816667 L11.3800392,17.4125 C11.5838824,17.31375 11.8404902,17.3145833 12.0438824,17.4125 L16.9212353,19.7816667 C17.158451,19.8970833 17.411451,19.9554167 17.6725686,19.9554167 C18.1492549,19.9554167 18.6011373,19.7595833 18.9118627,19.41875 C19.2216863,19.08 19.3466078,18.6495833 19.2640784,18.20875 L18.3328039,13.19125 C18.2931176,12.9775 18.3702353,12.7595833 18.538451,12.6079167 L22.4840784,9.05416667 Z"></path>
                    </g>
                </g>
            </g>
        </g>
    </g>
</svg>