<?xml version="1.0" encoding="UTF-8"?>
<svg width="22px" height="29px" viewBox="0 0 22 29" version="1.1" xmlns="http://www.w3.org/2000/svg" xmlns:xlink="http://www.w3.org/1999/xlink">
    <!-- Generator: Sketch 52.6 (67491) - http://www.bohemiancoding.com/sketch -->
    <title>003-notification-1</title>
    <desc>Created with Sketch.</desc>
    <g id="Page-1" stroke="none" stroke-width="1" fill="none" fill-rule="evenodd">
        <g id="Dashboard" transform="translate(-1213.000000, -32.000000)" fill="#0B215F">
            <g id="Header">
                <g id="new" transform="translate(1191.000000, 0.000000)">
                    <g id="003-notification-1" transform="translate(22.000000, 33.000000)">
                        <g id="003-notification-1-01" transform="translate(0.000000, -0.072917)">
                            <path d="M21.13925,20.699 C20.5521596,20.1586165 20.2168548,19.3949539 20.2148882,18.59375 L20.2148882,18.0602917 L20.2164079,18.0602917 L20.2164079,12.2742812 C20.213132,8.69233506 18.1699827,5.4301475 14.9624605,3.88558333 L14.9636184,3.88434375 C14.9316316,3.86895833 14.8991382,3.8548125 14.8669342,3.83979167 C14.8493487,3.83155208 14.8316908,3.82353125 14.8141053,3.8154375 C14.7446316,3.78354861 14.6748202,3.75248611 14.6046711,3.72225 C14.5558947,3.70125 14.5069254,3.68061458 14.4577632,3.66034375 C14.4283333,3.64833681 14.3988553,3.63645139 14.3693289,3.6246875 C14.1982018,3.55663194 14.0245175,3.49360764 13.8482763,3.43561458 L13.8440789,3.434375 C13.5690789,3.34395833 13.2885066,3.26618056 13.0023618,3.20104167 L13.0017829,3.20242708 C12.8948224,3.17836458 12.7875,3.15583333 12.6796711,3.13563542 C13.2171215,2.28904635 13.0564299,1.17330499 12.3023216,0.51555818 C11.5482134,-0.142188631 10.4292626,-0.142574389 9.67470778,0.514652309 C8.92015297,1.17187901 8.75870364,2.28750931 9.29557895,3.13446875 C5.01325,3.93786458 1.76094079,7.73040625 1.76094079,12.2742812 L1.76094079,18.59375 C1.75895007,19.3950035 1.42349674,20.1586788 0.836217105,20.6989271 C0.0760136041,21.3992958 -0.179261776,22.498178 0.193474559,23.4657366 C0.566210894,24.4332952 1.49043374,25.0708841 2.52051974,25.0710833 L7.55692763,25.0710833 C7.82403454,26.7717133 9.2790666,28.0240047 10.9879145,28.0240047 C12.6967623,28.0240047 14.1517944,26.7717133 14.4189013,25.0710833 L19.4550197,25.0710833 C20.4850585,25.0708211 21.4092107,24.4332334 21.7819215,23.4657158 C22.1546322,22.4981983 21.8993888,21.3993695 21.13925,20.699 Z M10.9879145,1.11803125 C11.4975062,1.11803125 11.9106118,1.53426652 11.9106118,2.04771875 C11.9106118,2.56117098 11.4975062,2.97740625 10.9879145,2.97740625 C10.4783228,2.97740625 10.0652171,2.56117098 10.0652171,2.04771875 C10.0657755,1.53449974 10.4785543,1.11859386 10.9879145,1.11803125 Z M10.9879145,26.9305313 C9.87871346,26.9289925 8.9161247,26.1592217 8.66278947,25.0711563 L13.3130395,25.0711563 C13.0596093,26.159161 12.0970784,26.9288856 10.9879145,26.9305313 Z M19.4550197,23.9774062 L2.52080921,23.9774062 C1.9386114,23.9772374 1.41627569,23.6168408 1.20563359,23.0699728 C0.994991485,22.5231049 1.13928534,21.9020313 1.56894737,21.5061875 C2.38077691,20.7584634 2.84419507,19.7019815 2.84646711,18.59375 L2.84646711,12.2742812 C2.84672516,9.7214034 4.02645104,7.31413644 6.03797643,5.76190829 C8.04950182,4.20968015 10.6635509,3.68941542 13.1097566,4.3544375 L13.1134474,4.35545833 C13.1779035,4.37300694 13.2421425,4.39138194 13.3061645,4.41058333 L13.3254145,4.41634375 C13.3858662,4.43457292 13.4461732,4.45353125 13.5063355,4.47321875 L13.5271053,4.47992708 C13.5918026,4.50126736 13.6562346,4.52343403 13.7204013,4.54642708 C13.7374079,4.55255208 13.7541974,4.55904167 13.7710592,4.5653125 C13.812261,4.58038194 13.8532697,4.59574306 13.8940855,4.61139583 C13.9349013,4.62714583 13.9754276,4.64333333 14.0158816,4.65973958 C14.0303553,4.66564583 14.0452632,4.67155208 14.0598816,4.67753125 C14.1093333,4.69789931 14.1585439,4.71868056 14.2075132,4.739875 L14.2093224,4.74067708 C17.1937883,6.03871943 19.1277463,8.99908217 19.1309539,12.2743542 L19.1309539,13.1186562 C19.130375,13.1288646 19.1294342,13.139 19.1294342,13.1493542 L19.1294342,18.59375 C19.1316634,19.7019545 19.5950604,20.7584214 20.4068816,21.5061146 C20.8365986,21.9019486 20.9809286,22.5230576 20.7702796,23.0699596 C20.5596306,23.6168616 20.0372516,23.9772703 19.4550197,23.9774063 Z" id="Shape" fill-rule="nonzero"></path>
                        </g>
                    </g>
                </g>
            </g>
        </g>
    </g>
</svg>