<?xml version="1.0" encoding="UTF-8"?>
<svg width="25px" height="25px" viewBox="0 0 25 25" version="1.1" xmlns="http://www.w3.org/2000/svg" xmlns:xlink="http://www.w3.org/1999/xlink">
    <!-- Generator: Sketch 52.6 (67491) - http://www.bohemiancoding.com/sketch -->
    <title>004-bar-chart-1</title>
    <desc>Created with Sketch.</desc>
    <g id="Page-1" stroke="none" stroke-width="1" fill="none" fill-rule="evenodd">
        <g id="Dashboard" transform="translate(-661.000000, -34.000000)" fill="#8A95FF">
            <g id="Header">
                <g id="nav" transform="translate(456.000000, 0.000000)">
                    <g id="004-bar-chart-1" transform="translate(205.000000, 34.000000)">
                        <g id="Shape">
                            <path d="M24.1369863,3.74020888 L18.3219178,3.74020888 C17.8630137,3.74020888 17.4931507,4.0926893 17.4931507,4.53002611 L17.4931507,9.89556136 L13.3287671,9.89556136 L13.3287671,0.802872063 C13.3287671,0.365535248 12.9589041,0.0130548303 12.5,0.0130548303 L6.67808219,0.0130548303 C6.21917808,0.0130548303 5.84931507,0.365535248 5.84931507,0.802872063 L5.84931507,15.7441253 L1.75342466,15.7441253 L1.68493151,15.7441253 L0.589041096,15.7441253 C0.589041096,15.7441253 0.0273972603,15.7637076 0.0273972603,16.54047 C0.0273972603,19.5496084 0.0273972603,22.4477807 0.0273972603,23.1853786 L0.0479452055,24.4582245 C0.0479452055,24.8825065 0.376712329,24.9412533 0.376712329,24.9412533 L24.1369863,24.9412533 C24.5958904,24.9412533 24.9657534,24.5887728 24.9657534,24.151436 L24.9657534,4.53002611 C24.9657534,4.0926893 24.5958904,3.74020888 24.1369863,3.74020888 Z M5.84931507,23.3550914 L1.68493151,23.3550914 L1.68493151,17.3172324 L5.84931507,17.3172324 L5.84931507,23.3550914 Z M11.6712329,23.3550914 L7.50684932,23.3550914 L7.50684932,1.5926893 L11.6712329,1.5926893 L11.6712329,23.3550914 Z M17.4863014,23.3550914 L13.3219178,23.3550914 L13.3219178,11.4751958 L17.4863014,11.4751958 L17.4863014,23.3550914 Z M23.3082192,23.3550914 L19.1438356,23.3550914 L19.1438356,5.31984334 L23.3082192,5.31984334 L23.3082192,23.3550914 Z" fill-rule="nonzero"></path>
                        </g>
                    </g>
                </g>
            </g>
        </g>
    </g>
</svg>