<?xml version="1.0" encoding="UTF-8"?>
<svg width="22px" height="22px" viewBox="0 0 22 22" version="1.1" xmlns="http://www.w3.org/2000/svg" xmlns:xlink="http://www.w3.org/1999/xlink">
    <!-- Generator: Sketch 52.6 (67491) - http://www.bohemiancoding.com/sketch -->
    <title>005-megaphone-1 copy</title>
    <desc>Created with Sketch.</desc>
    <g id="Page-1" stroke="none" stroke-width="1" fill="none" fill-rule="evenodd">
        <g id="Dashboard" transform="translate(-181.000000, -2857.000000)" fill="#357BD9">
            <g id="News" transform="translate(180.000000, 2857.000000)">
                <g id="005-megaphone-1" transform="translate(1.000000, 0.000000)">
                    <g id="Path">
                        <path d="M10.9792437,13.7931852 L10.9792437,5.41929045 C10.7418324,5.44124756 10.5071657,5.47830019 10.2683821,5.48927875 L3.43148538,5.48927875 C3.05272515,5.48927875 2.74532554,5.79667836 2.74532554,6.1754386 L2.74532554,6.86159844 L0.686846004,6.86159844 C0.30808577,6.86159844 0.000686159844,7.16899805 0.000686159844,7.54775828 L0.000686159844,11.6647173 C0.000686159844,12.0434776 0.30808577,12.3508772 0.686846004,12.3508772 L2.74532554,12.3508772 L2.74532554,13.037037 C2.74532554,13.4157973 3.05272515,13.7231969 3.43148538,13.7231969 L3.84729825,13.7231969 L6.60566082,21.0760858 C6.77445614,21.5166004 7.15184405,21.8363509 7.61568811,21.9296686 C7.70763353,21.9488811 7.79957895,21.9584873 7.89015205,21.9584873 C8.2565614,21.9584873 8.6051306,21.8130214 8.85489279,21.5522807 L10.5030487,19.917848 C10.9243509,19.4965458 11.0245302,18.8392047 10.7555556,18.3300741 L8.45280312,13.7231969 L10.2752437,13.7231969 C10.5112827,13.7341754 10.744577,13.7712281 10.9792437,13.7931852 Z"></path>
                        <path d="M21.845271,0.332101365 C21.8315478,0.30877193 21.8191969,0.289559454 21.8013567,0.267602339 C21.7258791,0.171539961 21.6311891,0.0933177388 21.5145419,0.0480311891 C21.510425,0.0466588694 21.5076803,0.0411695906 21.5035634,0.039797271 C21.4898402,0.0356803119 21.4774893,0.0425419103 21.4637661,0.0384249513 C21.4020117,0.0205847953 21.3402573,0 21.2716413,0 C21.2249825,0 21.1838129,0.0178401559 21.1385263,0.0274463938 C21.1124522,0.0329356725 21.0877505,0.0343079922 21.0616764,0.0425419103 C20.9436569,0.0809668616 20.8421053,0.146838207 20.7611384,0.237411306 C20.7556491,0.242900585 20.7474152,0.244272904 20.7419259,0.249762183 C18.6024795,2.84756335 15.6190565,4.58492008 12.3515634,5.22167641 L12.3515634,13.9921715 C15.6190565,14.6289279 18.6024795,16.3649123 20.7419259,18.9627135 C20.7474152,18.969575 20.7570214,18.9723197 20.763883,18.9805536 C20.8119142,19.0340741 20.870924,19.076616 20.9340507,19.1122963 C20.9546355,19.1246472 20.9711033,19.1424873 20.9916881,19.1520936 C21.0781442,19.1891462 21.171462,19.2124756 21.2716413,19.2124756 C21.3498635,19.2124756 21.4267135,19.1987524 21.5035634,19.1726784 C21.5076803,19.171306 21.510425,19.1658168 21.5145419,19.1644444 C21.6311891,19.1191579 21.7258791,19.042308 21.8013567,18.9448733 C21.8178246,18.9229162 21.8301754,18.9037037 21.845271,18.8803743 C21.9111423,18.7747057 21.9578012,18.6580585 21.9578012,18.5263158 L21.9578012,0.686159844 C21.9578012,0.554417154 21.9111423,0.437769981 21.845271,0.332101365 Z"></path>
                    </g>
                </g>
            </g>
        </g>
    </g>
</svg>