<?xml version="1.0" encoding="UTF-8"?>
<svg width="22px" height="21px" viewBox="0 0 22 21" version="1.1" xmlns="http://www.w3.org/2000/svg" xmlns:xlink="http://www.w3.org/1999/xlink">
    <!-- Generator: Sketch 52.6 (67491) - http://www.bohemiancoding.com/sketch -->
    <title>006-gift-1</title>
    <desc>Created with Sketch.</desc>
    <g id="Page-1" stroke="none" stroke-width="1" fill="none" fill-rule="evenodd">
        <g id="Dashboard" transform="translate(-916.000000, -794.000000)" fill="#8A95FF">
            <g id="Birthdays" transform="translate(916.000000, 793.000000)">
                <g id="006-gift-1" transform="translate(0.000000, 1.000000)">
                    <g>
                        <path d="M1.375,11.186525 L1.375,19.586525 C1.375,20.359325 1.992375,20.986525 2.75,20.986525 L9.625,20.986525 L9.625,11.186525 L1.375,11.186525 Z" id="Path"></path>
                        <path d="M20.625,5.586525 L16.2745,5.586525 C16.586625,5.369525 16.85475,5.153925 17.04175,4.960725 C18.151375,3.825325 18.151375,1.977325 17.04175,0.841925 C15.96375,-0.264075 14.0855,-0.261275 13.008875,0.841925 C12.412125,1.450925 10.830875,3.930325 11.0495,5.586525 L10.9505,5.586525 C11.16775,3.930325 9.5865,1.450925 8.991125,0.841925 C7.913125,-0.261275 6.034875,-0.261275 4.95825,0.841925 C3.85,1.977325 3.85,3.825325 4.956875,4.960725 C5.14525,5.153925 5.413375,5.369525 5.7255,5.586525 L1.375,5.586525 C0.617375,5.586525 0,6.215125 0,6.986525 L0,9.086525 C0,9.472925 0.308,9.786525 0.6875,9.786525 L9.625,9.786525 L9.625,6.986525 L12.375,6.986525 L12.375,9.786525 L21.3125,9.786525 C21.692,9.786525 22,9.472925 22,9.086525 L22,6.986525 C22,6.215125 21.384,5.586525 20.625,5.586525 Z M9.543875,5.540325 C9.543875,5.540325 9.486125,5.586525 9.2895,5.586525 C8.339375,5.586525 6.52575,4.581325 5.933125,3.973725 C5.357,3.382925 5.357,2.419725 5.933125,1.828925 C6.21225,1.543325 6.582125,1.386525 6.975375,1.386525 C7.36725,1.386525 7.737125,1.543325 8.01625,1.828925 C8.943,2.778125 9.86425,5.202925 9.543875,5.540325 Z M12.709125,5.586525 C12.513875,5.586525 12.456125,5.541725 12.456125,5.540325 C12.13575,5.202925 13.057,2.778125 13.98375,1.828925 C14.537875,1.259125 15.50725,1.256325 16.066875,1.828925 C16.644375,2.419725 16.644375,3.382925 16.066875,3.973725 C15.47425,4.581325 13.660625,5.586525 12.709125,5.586525 Z" id="Shape" fill-rule="nonzero"></path>
                        <path d="M12.375,11.186525 L12.375,20.986525 L19.25,20.986525 C20.009,20.986525 20.625,20.359325 20.625,19.586525 L20.625,11.186525 L12.375,11.186525 Z" id="Path"></path>
                    </g>
                </g>
            </g>
        </g>
    </g>
</svg>