<?xml version="1.0" encoding="UTF-8"?>
<svg width="25px" height="25px" viewBox="0 0 25 25" version="1.1" xmlns="http://www.w3.org/2000/svg" xmlns:xlink="http://www.w3.org/1999/xlink">
    <!-- Generator: Sketch 52.6 (67491) - http://www.bohemiancoding.com/sketch -->
    <title>006-event</title>
    <desc>Created with Sketch.</desc>
    <g id="Page-1" stroke="none" stroke-width="1" fill="none" fill-rule="evenodd">
        <g id="Dashboard" transform="translate(-778.000000, -34.000000)" fill="#8A95FF">
            <g id="Header">
                <g id="nav" transform="translate(456.000000, 0.000000)">
                    <g id="006-event" transform="translate(322.000000, 34.000000)">
                        <g id="Shape">
                            <path d="M22.7773866,2.70956221 C22.7245227,2.70748848 22.671599,2.70714286 22.6186754,2.70858295 L20.6236277,2.70858295 L20.6236277,1.05334101 C20.6236874,0.39124424 19.9690334,0 19.2832339,0 L17.4440931,0 C16.7582936,0 16.2595465,0.39124424 16.2595465,1.05334101 L16.2595465,2.70852535 L8.77816229,2.70852535 L8.77816229,1.05334101 C8.77816229,0.39124424 8.27941527,0 7.59361575,0 L5.75441527,0 C5.06867542,0 4.41402148,0.39124424 4.41402148,1.05334101 L4.41402148,2.70852535 L2.41903341,2.70852535 C1.14552506,2.67425115 0.0843675418,3.64320276 0.0488663484,4.87263825 C0.0473747017,4.92367512 0.0477326969,4.97482719 0.0498806683,5.02586406 L0.0498806683,22.4207373 C0.0498806683,23.7449309 1.0473747,24.9788018 2.41897375,24.9788018 L22.6187351,24.9788018 C23.9903341,24.9788018 24.9878282,23.7449309 24.9878282,22.4207373 L24.9878282,5.02586406 C25.0399761,3.796947 24.0502983,2.75990783 22.7773866,2.70956221 Z M17.4440931,1.20380184 L19.37679,1.20380184 L19.37679,4.51422811 L17.4440931,4.51422811 L17.4440931,1.20380184 Z M5.75447494,1.20380184 L7.53132458,1.20380184 L7.53132458,4.51422811 L5.75447494,4.51422811 L5.75447494,1.20380184 Z M23.7409308,22.4207373 C23.7409308,23.0828341 23.3045346,23.775 22.6187351,23.775 L2.41903341,23.775 C1.73323389,23.775 1.29683771,23.0828341 1.29683771,22.4207373 L1.29683771,9.63041475 L23.7409308,9.63041475 L23.7409308,22.4207373 Z M23.7409308,5.02586406 L23.7409308,8.4266129 L1.29677804,8.4266129 L1.29677804,5.02586406 C1.24397375,4.46307604 1.67374702,3.96549539 2.25668258,3.91451613 C2.31062053,3.90979263 2.36491647,3.90910138 2.41897375,3.91238479 L4.41402148,3.91238479 L4.41402148,4.57448157 C4.41402148,5.23657834 5.06861575,5.71808756 5.75441527,5.71808756 L7.59361575,5.71808756 C8.23036993,5.73496544 8.76068019,5.25023041 8.77816229,4.63548387 C8.77875895,4.61514977 8.77875895,4.59481567 8.77816229,4.57448157 L8.77816229,3.91232719 L16.2595465,3.91232719 L16.2595465,4.57442396 C16.2420644,5.18917051 16.7441527,5.70115207 17.3809069,5.71802995 C17.401969,5.71860599 17.423031,5.71860599 17.4440931,5.71802995 L19.2832936,5.71802995 C19.9690931,5.71802995 20.6236874,5.23652074 20.6236874,4.57442396 L20.6236874,3.91232719 L22.6187351,3.91232719 C23.2029236,3.87678571 23.7063246,4.30518433 23.7431384,4.86918203 C23.7465394,4.92137097 23.7458234,4.97379032 23.7409308,5.02586406 Z" fill-rule="nonzero"></path>
                            <path d="M9.05871122,17.8463134 L8.49761337,20.855818 C8.47541766,20.9849078 8.4973747,21.1175115 8.56020286,21.2334677 C8.71980907,21.5279954 9.09653938,21.6418779 9.40161098,21.487788 L12.2071002,20.0733295 L15.0125895,21.487788 L15.2931384,21.5479839 C15.428401,21.550288 15.5604415,21.5077765 15.6671838,21.4275922 C15.8535203,21.2961982 15.9494033,21.0762673 15.9165871,20.8557604 L15.3554893,17.8462558 L17.6310859,15.7396313 C17.7939141,15.5697581 17.8529833,15.3301267 17.7869332,15.1076613 C17.7029833,14.9020161 17.5138425,14.7536866 17.2881862,14.7164171 L14.1709427,14.264977 L12.7681981,11.5263249 C12.7070406,11.4044355 12.6051313,11.3059908 12.4788783,11.2470046 C12.1689737,11.1021313 11.7961217,11.2271889 11.6460024,11.5263249 L10.2432578,14.264977 L7.12601432,14.7164171 C6.900358,14.753629 6.71121718,14.9020161 6.6272673,15.1076613 C6.56121718,15.3301267 6.62034606,15.5697581 6.78311456,15.7396313 L9.05871122,17.8463134 Z M10.77321,15.4086406 C10.9689737,15.3803571 11.1348449,15.2545507 11.2096062,15.0775922 L12.2071002,13.1514977 L13.2045943,15.0775922 C13.2794153,15.2545507 13.4452267,15.3803571 13.6409905,15.4086406 L15.8542363,15.7095622 L14.2644391,17.1842166 C14.1163484,17.3257488 14.0468974,17.5269009 14.0773866,17.7259217 L14.451432,19.8626728 L12.4875895,18.8394585 L12.2070406,18.7792627 L11.9264916,18.8394585 L9.96264916,19.8626728 L10.3366945,17.7259217 C10.3672434,17.5269009 10.2977327,17.3257488 10.149642,17.1842166 L8.55984487,15.7095622 L10.77321,15.4086406 Z" fill-rule="nonzero"></path>
                        </g>
                    </g>
                </g>
            </g>
        </g>
    </g>
</svg>