<?xml version="1.0" encoding="UTF-8"?>
<svg width="106px" height="141px" viewBox="0 0 106 141" version="1.1" xmlns="http://www.w3.org/2000/svg" xmlns:xlink="http://www.w3.org/1999/xlink">
    <!-- Generator: Sketch 52.6 (67491) - http://www.bohemiancoding.com/sketch -->
    <title>icon-placeholder</title>
    <desc>Created with Sketch.</desc>
    <defs>
        <linearGradient x1="50.0000927%" y1="100.458213%" x2="50.0000927%" y2="-16.913271%" id="linearGradient-1">
            <stop stop-color="#11998E" offset="0%"></stop>
            <stop stop-color="#38EF7D" offset="100%"></stop>
        </linearGradient>
    </defs>
    <g id="Page-1" stroke="none" stroke-width="1" fill="none" fill-rule="evenodd">
        <g id="Dashboard" transform="translate(-252.000000, -2296.000000)" stroke="url(#linearGradient-1)" stroke-width="2">
            <g id="Connect-to-more" transform="translate(180.000000, 2211.000000)">
                <g id="set" transform="translate(4.000000, 55.000000)">
                    <g id="1">
                        <g id="icon-placeholder" transform="translate(69.462963, 31.433962)">
                            <path d="M103.073629,66.7513333 C103.058418,65.9866871 102.654244,65.2821203 102.003436,64.8845042 L74.671663,48.2042935 C74.8389826,47.0835405 74.9226423,45.9507718 74.9226423,44.8169106 C74.9215559,38.2759084 72.2107603,32.032026 67.4399776,27.5839697 C62.3280363,22.7972846 55.4842285,20.329662 48.5111278,20.761141 C42.2822738,21.1216169 36.4108754,23.8055253 32.0453536,28.2874443 C27.6548427,32.7901182 25.2254484,38.6309227 25.2026321,44.7317073 C25.1971998,46.4445148 25.3786436,48.1529529 25.7458777,49.8253432 L1.07057602,64.8845042 C0.418681298,65.2832125 0.0145065719,65.9888719 0.0003822558,66.7557027 C-0.0137420603,67.5225337 0.364356877,68.2423936 1.00104058,68.6651335 L13.8661831,77.1909389 L1.00104058,85.7156515 C0.365443299,86.1383917 -0.0115692169,86.8571593 0.0003822558,87.6228978 C0.0123337285,88.3886363 0.41216249,89.0953879 1.05971125,89.4984656 L15.6567206,98.3803776 L15.6567206,116.255621 C15.662153,117.055223 16.0902304,117.79256 16.7801524,118.191269 L50.4146604,137.783689 C51.1056688,138.184582 51.9563915,138.185675 52.6484863,137.784781 L86.3492705,118.193453 C87.027241,117.788191 87.4346752,117.047576 87.4172914,116.255621 L87.4172914,98.3082822 L101.954543,89.4995579 C102.612957,89.105219 103.025824,88.4017445 103.050813,87.6327289 C103.071457,86.8680827 102.700963,86.1471305 102.068625,85.7211135 L89.2990939,77.1920312 L102.077317,68.6629489 C102.712914,68.2391165 103.08884,67.5181643 103.073629,66.7513333 Z M35.224427,31.4192167 C38.8163667,27.7314373 43.6479932,25.5237945 48.7729724,25.2277671 C49.1923578,25.202643 49.6117433,25.190627 50.0289559,25.190627 C55.3560223,25.1709648 60.4896935,27.1896308 64.3880236,30.8391779 C68.2624514,34.4450309 70.4680287,39.510266 70.4723743,44.8180029 C70.4723743,52.445895 65.7341863,59.4631625 58.4688196,62.6965237 C57.6539513,63.0493533 57.1183112,63.8489548 57.0998409,64.7414061 L57.0998409,66.9381255 L42.9146118,66.9381255 L42.9146118,64.6562028 C42.9189575,63.7626589 42.3920093,62.9521341 41.574968,62.5993044 C34.2998229,59.4751785 29.6213919,52.4677421 29.6485541,44.7480924 C29.6670244,39.8183091 31.6498711,35.0862414 35.224427,31.4192167 Z M51.5391788,93.7356981 L22.4092632,77.1843847 L38.4643439,67.9944297 L38.4643439,77.7753469 C38.4828141,81.5374062 41.5304219,84.5719595 45.2712112,84.5555741 L54.8562364,84.5555741 C56.6413415,84.5588513 58.3536516,83.8444531 59.6107219,82.5707711 C60.8688788,81.2970889 61.5664061,79.5700809 61.5501089,77.7753469 L61.5501089,66.2859916 L80.7158137,77.1843847 L51.5391788,93.7356981 Z M42.9146118,71.4123982 L57.0998409,71.4123982 L57.0998409,77.7753469 C57.1183112,78.3837867 56.8890615,78.9725644 56.4653301,79.4084128 C56.0426848,79.8431686 55.4614119,80.0856709 54.8562364,80.0813015 L45.2712112,80.0813015 C44.6540842,80.0900403 44.0597734,79.8519075 43.6175714,79.4193365 C43.1753697,78.9867649 42.9222171,78.3958027 42.9146118,77.7753469 L42.9146118,71.4123982 Z M27.1659218,54.1936578 C28.991227,58.3511486 31.9486559,61.9045687 35.6970507,64.4431941 L17.9959361,74.5671099 L6.38569097,66.8747689 L27.1659218,54.1936578 Z M17.9991953,79.8103982 L46.8889965,96.2328142 L32.8439247,103.649882 L18.7043283,94.987533 L6.39221006,87.5027392 L17.9991953,79.8103982 Z M20.1069885,101.10361 L31.5912004,108.130709 C32.2626518,108.540341 33.0981638,108.566557 33.7946045,108.200619 L49.311872,100.006889 L49.311872,131.965824 L20.1069885,114.966646 L20.1069885,101.10361 Z M53.76214,131.972378 L53.76214,100.006889 L69.2761476,108.200619 C69.5955762,108.368842 69.9508586,108.457322 70.3115739,108.457322 C70.7048836,108.457322 71.0916745,108.343718 71.4241409,108.130709 L82.9670234,101.030423 L82.9670234,114.963369 L53.76214,131.972378 Z M84.3631646,94.9919027 L70.230087,103.649882 L56.191534,96.2360911 L85.1878112,79.8125831 L96.6937531,87.4950927 L84.3631646,94.9919027 Z M85.1921574,74.5660177 L65.7559161,63.4884789 C69.2848395,60.6964276 71.9749917,56.9758777 73.5254148,52.7386453 L96.7002722,66.8824155 L85.1921574,74.5660177 Z" id="Shape" fill-rule="nonzero"></path>
                            <path d="M50.5553792,15.7811321 C51.9106707,15.7811321 53.0095238,14.7711309 53.0095238,13.5254259 L53.0095238,2.2557062 C53.0095238,1.01000119 51.9106707,0 50.5553792,0 C49.2000873,0 48.1012346,1.01000119 48.1012346,2.2557062 L48.1012346,13.5254259 C48.1012346,14.7711309 49.2000873,15.7811321 50.5553792,15.7811321 Z" id="Path"></path>
                            <path d="M7.08969197,46.3570755 L18.4334121,46.3570755 C19.6380833,46.3570755 20.6148148,45.2530031 20.6148148,43.8912736 C20.6148148,42.529544 19.6380833,41.4254717 18.4334121,41.4254717 L7.08969197,41.4254717 C5.88502077,41.4254717 4.90828924,42.529544 4.90828924,43.8912736 C4.90828924,45.2530031 5.88502077,46.3570755 7.08969197,46.3570755 Z" id="Path"></path>
                            <path d="M79.5142857,43.8912736 C79.5142857,45.2530031 80.4910175,46.3570755 81.6956884,46.3570755 L93.0394086,46.3570755 C94.2440798,46.3570755 95.2208113,45.2530031 95.2208113,43.8912736 C95.2208113,42.529544 94.2440798,41.4254717 93.0394086,41.4254717 L81.6956884,41.4254717 C80.4910175,41.4254717 79.5142857,42.529544 79.5142857,43.8912736 Z" id="Path"></path>
                            <path d="M26.6521106,24.067984 C27.5481195,24.8839618 28.964251,24.8493954 29.8154598,23.9904712 C30.6677612,23.131547 30.6306098,21.7729804 29.7346006,20.9570024 L21.4497937,13.4120865 C20.5526919,12.5961087 19.1365604,12.6306751 18.2853516,13.4906467 C17.4341428,14.3495709 17.4702019,15.7070901 18.3662111,16.5230681 L26.6521106,24.067984 Z" id="Path"></path>
                            <path d="M71.9360595,24.658015 C72.5087033,24.6590624 73.0605832,24.4474684 73.4769523,24.0682752 L81.7628019,16.523164 C82.6589238,15.7071648 82.6949872,14.3496104 81.8436715,13.490664 C80.9923556,12.6306701 79.574953,12.5961028 78.678831,13.4121018 L70.3940739,20.957213 C69.7307253,21.5626656 69.517623,22.4938891 69.8574938,23.3088406 C70.1973645,24.1237924 71.0202667,24.658015 71.9360595,24.658015 Z" id="Path"></path>
                        </g>
                    </g>
                </g>
            </g>
        </g>
    </g>
</svg>